<?xml version="1.0" encoding="utf-8"?>
<!-- Generator: Adobe Illustrator 18.0.0, SVG Export Plug-In . SVG Version: 6.00 Build 0)  -->
<!DOCTYPE svg PUBLIC "-//W3C//DTD SVG 1.1//EN" "http://www.w3.org/Graphics/SVG/1.1/DTD/svg11.dtd">
<svg version="1.1" id="Layer_1" xmlns="http://www.w3.org/2000/svg" xmlns:xlink="http://www.w3.org/1999/xlink" x="0px" y="0px"
	 viewBox="0 0 62.7 62.7" enable-background="new 0 0 62.7 62.7" xml:space="preserve">
<path fill="#C93F3F" d="M131.3,0L131.3,0L99.8,0v31.4h0c0,17.3,14.1,31.3,31.3,31.3c17.3,0,31.3-14,31.3-31.3
	C162.5,14.1,148.6,0.1,131.3,0z"/>
<rect x="-94.8" fill="#AF4848" width="31.5" height="31.4"/>
<circle fill="#AF4848" cx="-63.5" cy="31.3" r="31.3"/>
<circle fill="#CE9595" cx="-63.3" cy="31.4" r="23"/>
<path fill="#E26E67" d="M31.5,0L31.5,0L0,0v31.4h0c0,17.3,14.1,31.3,31.3,31.3c17.3,0,31.3-14,31.3-31.3C62.7,14.1,48.7,0.1,31.5,0z
	"/>
<g>
	<path fill="#FFFFFF" d="M43.1,45.6c-2,1.4-4.8,2.2-8.5,2.2c-4.4,0-8.2-1.4-11.3-4.2c-3.4-3.1-5.1-7.2-5.1-12.2
		c0-5.3,1.6-9.5,4.9-12.7c3-2.8,6.8-4.3,11.3-4.3c2,0,4.4,0.3,7.1,0.9l0.9,8.7h-3.3l-1.9-5.2c-0.6-0.2-1.7-0.3-3.2-0.3
		c-1.5,0-3,0.3-4.3,1c-1.4,0.7-2.6,1.6-3.5,2.7c-2,2.4-3,5.2-3,8.6c0,3.7,1.1,6.7,3.3,9.1c2.2,2.4,5.2,3.6,8.9,3.6
		c1.4,0,2.6-0.2,3.8-0.6c1.2-0.4,2-0.8,2.5-1.2L43.1,45.6z"/>
</g>
<text transform="matrix(1 0 0 1 -77.4678 47.5833)" font-family="'Kreon-Regular'" font-size="48">C</text>
<path fill="#BF5A5A" d="M131.3,0L131.3,0L99.8,0c0,0,7.2,24.8,59.8,44.4c1.8-4,2.9-8.4,2.9-13.1C162.5,14.1,148.6,0.1,131.3,0z"/>
<text transform="matrix(1 0 0 1 114.6991 48.4911)" fill="#FFFFFF" font-family="'Kreon-Regular'" font-size="48">C</text>
</svg>
