<?xml version="1.0" encoding="iso-8859-1"?>
<!-- Generator: Adobe Illustrator 19.0.0, SVG Export Plug-In . SVG Version: 6.00 Build 0)  -->
<svg version="1.1" id="Layer_1" xmlns="http://www.w3.org/2000/svg" xmlns:xlink="http://www.w3.org/1999/xlink" x="0px" y="0px"
	 viewBox="0 0 511.999 511.999" style="enable-background:new 0 0 511.999 511.999;" xml:space="preserve">
<g transform="translate(1)">
	<path style="fill:#F0C419;" d="M79.473,138.845h162.948L210.755,32.244c-1.362-4.599-6.196-7.22-10.787-5.849L65.952,67.312
		c-4.599,1.362-7.22,6.196-5.849,10.787L79.473,138.845z"/>
	<path style="fill:#FB7B76;" d="M380.828,78.099H224.38l18.042,60.747h147.085V86.777C389.506,81.987,385.618,78.099,380.828,78.099
		"/>
	<path style="fill:#8697CB;" d="M224.38,78.099h129.564l-5.163-42.401c-0.729-5.988-6.17-10.249-12.158-9.52L213.41,41.182
		L224.38,78.099z"/>
	<g>
		<path style="fill:#424C6D;" d="M77.968,442.578H33.701c-4.79,0-8.678-3.879-8.678-8.678s3.888-8.678,8.678-8.678h44.267
			c4.799,0,8.678,3.879,8.678,8.678S82.767,442.578,77.968,442.578"/>
		<path style="fill:#424C6D;" d="M277.564,442.578H163.005c-4.799,0-8.678-3.879-8.678-8.678s3.879-8.678,8.678-8.678h114.559
			c4.799,0,8.678,3.879,8.678,8.678S282.363,442.578,277.564,442.578"/>
		<path style="fill:#424C6D;" d="M425.676,147.523c-0.477,0-0.946-0.035-1.432-0.122c-4.73-0.781-7.923-5.25-7.133-9.98l7.229-43.39
			c0.694-4.183,4.313-7.255,8.557-7.255h26.034c4.799,0,8.678,3.879,8.678,8.678s-3.879,8.678-8.678,8.678h-18.675l-6.031,36.136
			C433.521,144.512,429.842,147.523,425.676,147.523"/>
	</g>
	<path style="fill:#434C6D;" d="M389.506,442.578h-26.907c-4.797,0-8.678-3.881-8.678-8.678s3.881-8.678,8.678-8.678h26.907
		c7.314,0,14.348-3.144,19.305-8.627c5.009-5.534,7.348-12.67,6.593-20.094c-1.322-13.093-13.415-23.348-27.534-23.348H86.341
		c-4.792,0-8.678-3.881-8.678-8.678s3.886-8.678,8.678-8.678H387.87c22.916,0,42.594,17.11,44.806,38.958
		c1.229,12.187-2.771,24.39-10.992,33.483C413.447,437.349,401.718,442.578,389.506,442.578z"/>
	<g>
		<path style="fill:#797979;" d="M276.691,442.578c0,23.96,19.43,43.39,43.39,43.39s43.39-19.43,43.39-43.39
			c0-23.96-19.43-43.39-43.39-43.39C296.121,399.188,276.691,418.618,276.691,442.578"/>
		<path style="fill:#797979;" d="M77.095,442.578c0,23.96,19.43,43.39,43.39,43.39s43.39-19.43,43.39-43.39
			c0-23.96-19.43-43.39-43.39-43.39S77.095,418.618,77.095,442.578"/>
	</g>
	<g>
		<path style="fill:#6D7CA0;" d="M276.691,442.578c0,23.96,19.43,43.39,43.39,43.39s43.39-19.43,43.39-43.39
			c0-23.96-19.43-43.39-43.39-43.39C296.121,399.188,276.691,418.618,276.691,442.578"/>
		<path style="fill:#6D7CA0;" d="M77.095,442.578c0,23.96,19.43,43.39,43.39,43.39s43.39-19.43,43.39-43.39
			c0-23.96-19.43-43.39-43.39-43.39S77.095,418.618,77.095,442.578"/>
	</g>
	<path style="fill:#D1D4D1;" d="M42.402,138.845c-22.841,0-39.459,21.331-33.515,43.39l43.937,156.553
		c4.079,15.152,17.825,25.687,33.515,25.687H380.83l44.84-225.63H42.402z"/>
	<path style="fill:#434C6D;" d="M387.955,373.153H86.337c-19.577,0-36.801-13.204-41.895-32.111L0.531,184.579
		c-3.542-13.144-0.869-26.763,7.318-37.445c8.263-10.78,20.856-16.966,34.551-16.966h393.844L387.955,373.153z M42.4,147.523
		c-8.25,0-15.822,3.708-20.771,10.165c-4.877,6.365-6.466,14.487-4.364,22.288L61.18,336.441
		c3.076,11.432,13.415,19.356,25.157,19.356h287.364l41.39-208.274H42.4z"/>
	<path style="fill:#D8625E;" d="M458.931,95.455c0,14.38,11.655,26.034,26.034,26.034c14.38,0,26.034-11.655,26.034-26.034
		c0-14.38-11.655-26.034-26.034-26.034C470.585,69.421,458.931,81.075,458.931,95.455"/>
	<g>
		<path style="fill:#FFFFFF;" d="M320.081,459.934c-9.581,0-17.356-7.776-17.356-17.356c0-9.581,7.776-17.356,17.356-17.356
			c9.581,0,17.356,7.776,17.356,17.356C337.438,452.159,329.662,459.934,320.081,459.934"/>
		<path style="fill:#FFFFFF;" d="M120.486,459.934c-9.581,0-17.356-7.776-17.356-17.356c0-9.581,7.776-17.356,17.356-17.356
			s17.356,7.776,17.356,17.356C137.842,452.159,130.066,459.934,120.486,459.934"/>
	</g>
	<g>
		<path style="fill:#424C6D;" d="M103.129,234.304c-4.799,0-8.678-3.879-8.678-8.678v-52.068c0-4.799,3.879-8.678,8.678-8.678
			c4.799,0,8.678,3.879,8.678,8.678v52.068C111.807,230.425,107.928,234.304,103.129,234.304"/>
		<path style="fill:#424C6D;" d="M129.164,208.27H77.095c-4.799,0-8.678-3.879-8.678-8.678s3.879-8.678,8.678-8.678h52.068
			c4.799,0,8.678,3.879,8.678,8.678C137.842,204.391,133.963,208.27,129.164,208.27"/>
		<path style="fill:#424C6D;" d="M103.129,338.441c-4.799,0-8.678-3.879-8.678-8.678v-52.068c0-4.799,3.879-8.678,8.678-8.678
			c4.799,0,8.678,3.879,8.678,8.678v52.068C111.807,334.562,107.928,338.441,103.129,338.441"/>
		<path style="fill:#424C6D;" d="M129.164,312.407H77.095c-4.799,0-8.678-3.879-8.678-8.678s3.879-8.678,8.678-8.678h52.068
			c4.799,0,8.678,3.879,8.678,8.678C137.842,308.528,133.963,312.407,129.164,312.407"/>
		<path style="fill:#424C6D;" d="M215.944,234.304c-4.799,0-8.678-3.879-8.678-8.678v-52.068c0-4.799,3.879-8.678,8.678-8.678
			s8.678,3.879,8.678,8.678v52.068C224.622,230.425,220.743,234.304,215.944,234.304"/>
		<path style="fill:#424C6D;" d="M241.979,208.27H189.91c-4.799,0-8.678-3.879-8.678-8.678s3.879-8.678,8.678-8.678h52.068
			c4.799,0,8.678,3.879,8.678,8.678C250.657,204.391,246.778,208.27,241.979,208.27"/>
		<path style="fill:#424C6D;" d="M215.944,338.441c-4.799,0-8.678-3.879-8.678-8.678v-52.068c0-4.799,3.879-8.678,8.678-8.678
			s8.678,3.879,8.678,8.678v52.068C224.622,334.562,220.743,338.441,215.944,338.441"/>
		<path style="fill:#424C6D;" d="M241.979,312.407H189.91c-4.799,0-8.678-3.879-8.678-8.678s3.879-8.678,8.678-8.678h52.068
			c4.799,0,8.678,3.879,8.678,8.678C250.657,308.528,246.778,312.407,241.979,312.407"/>
		<path style="fill:#424C6D;" d="M328.759,234.304c-4.799,0-8.678-3.879-8.678-8.678v-52.068c0-4.799,3.879-8.678,8.678-8.678
			s8.678,3.879,8.678,8.678v52.068C337.438,230.425,333.558,234.304,328.759,234.304"/>
		<path style="fill:#424C6D;" d="M354.794,208.27h-52.068c-4.799,0-8.678-3.879-8.678-8.678s3.879-8.678,8.678-8.678h52.068
			c4.799,0,8.678,3.879,8.678,8.678C363.472,204.391,359.593,208.27,354.794,208.27"/>
		<path style="fill:#424C6D;" d="M328.759,338.441c-4.799,0-8.678-3.879-8.678-8.678v-52.068c0-4.799,3.879-8.678,8.678-8.678
			s8.678,3.879,8.678,8.678v52.068C337.438,334.562,333.558,338.441,328.759,338.441"/>
		<path style="fill:#424C6D;" d="M354.794,312.407h-52.068c-4.799,0-8.678-3.879-8.678-8.678s3.879-8.678,8.678-8.678h52.068
			c4.799,0,8.678,3.879,8.678,8.678C363.472,308.528,359.593,312.407,354.794,312.407"/>
	</g>
</g>
<g>
</g>
<g>
</g>
<g>
</g>
<g>
</g>
<g>
</g>
<g>
</g>
<g>
</g>
<g>
</g>
<g>
</g>
<g>
</g>
<g>
</g>
<g>
</g>
<g>
</g>
<g>
</g>
<g>
</g>
</svg>
